<svg xmlns="http://www.w3.org/2000/svg" fill="none" viewBox="0 0 615 544">
    <defs />
    <path fill="#0F0F0F" fill-rule="evenodd"
        d="M608.2 249.5c8 14 8 31 0 45l-131 227a45 45 0 01-39 22.5H176a45 45 0 01-39-22.5L6 294.5c-8.1-14-8.1-31 0-45l131-227A45 45 0 01176 0h262c16.2 0 31 8.6 39 22.5l131.1 227z"
        clip-rule="evenodd" />
    <path fill="#A29CE3"
        d="M412.9 260.2v53.1h-12.4v6h17.4v-59.1h-5zM399.2 242c1.4.7 3 1 4.9 1a9.7 9.7 0 0010.4-10c0-1-.2-2-.5-2.9 1 .5 1.7 1 2.4 1.8 2 1.9 3 4.2 3 7.1 0 3-1 5.3-3 7.3-1.9 1.8-4.3 2.7-7.3 2.7s-5.5-.9-7.4-2.7a9.6 9.6 0 01-2.5-4.3zM368.7 312.8c2.6 1.6 5.8 2.4 9.6 2.4 3.9 0 7.4-.7 10.6-2l-1.7-6h.4c1 0 2-.1 2.9-.5l3.4 12.5c-3.2 1.3-6.7 2-10.6 2-5 0-9-1.4-11.9-4.3a14 14 0 01-2.7-4.1zM384.6 301c-.6.2-1.3.3-2 .3-2 0-3-1.2-3-3.7v-62.3l5-.5V301zM176 242.1l-1 7h-27v18.6h5v-12.5h27l1.8-13H176zM171.5 273.7h5v12.8h-23.4v13.7h-5v-19.7h23.4v-6.8zM176.8 306.2v7.1H135v6h46.8v-13.1h-5zM235.3 260.9c.9.6 1.7 1.3 2.4 2 2.9 3.2 4.3 7.6 4.3 13.2v43.2h-17.4v-6H237v-43.2c0-3.6-.6-6.7-1.7-9.2zM203.9 260.2h-1v1l1-1zM204 313.3h-12.4v6H209V279c3.2-5.1 6.6-7.7 10.1-7.7h.4c-.1-2-.6-3.4-1.3-4.2-.9-1.2-2.3-1.8-4-1.8-3.6 0-7 2.6-10.2 7.7v40.4zM298 260.2l-16.6 53.1H264l2 6h20.5l18.4-59.1H298zM273.2 292l-7.2-31.8h-3.7l9 39.7 1.9-7.8zM350 296.2c0 2.2.3 3.8.9 4.9a6 6 0 003 2.3l-3.6 11.5a21.9 21.9 0 01-9-2.5 13 13 0 005.2 6.1c2.3 1.3 5.2 2 8.8 2.4l3.6-11.5a6 6 0 01-3-2.3c-.6-1-1-2.7-1-5v-22.9c0-7-1.9-12.2-5.8-15.7l-1.3-1c1.5 3 2.2 6.5 2.2 10.7v23zM310.3 267.4l2.4 6.8a63.8 63.8 0 0115.3-3.1c1.9 0 3.4.2 4.7.5-.3-2-1-3.6-2-4.5-1.5-1.3-4-2-7.7-2a61.5 61.5 0 00-12.7 2.3zM341.2 312.3a13.2 13.2 0 01-5-6c-3.8 6-9.7 8.9-17.6 8.9-4.9 0-9-1.2-12.2-3.6.9 1.6 2 3.1 3.3 4.5 3.5 3.4 8 5.1 13.9 5.1 7.9 0 13.8-3 17.6-8.9zM333 292.5c-3.7 0-6.4.8-8.3 2-2 1.5-2.9 3.7-2.9 6.7v1.3a6.2 6.2 0 01-3.2-1.8 8.2 8.2 0 01-1.8-5.5c0-3 1-5.2 2.9-6.6 2-1.4 5-2.1 9-2.1h4.2v6zM433.4 311.2l1 1.5c3.8 5.7 9.4 8.5 16.7 8.5 6.6 0 11.9-2.6 16-7.9h-3.5l-1-6.9a19.3 19.3 0 01-16.6 8.8c-5 0-9.2-1.3-12.6-4zM467.8 313.3l.8 6H484v-82.6l-5-.6v77.2h-11.2zM448.2 301.7c-.9-2.9-1.3-6.9-1.3-12 0-6.3 1-11 2.8-14 2-3 4.5-4.6 7.7-4.6 1.6 0 3 .3 4.2.8v-1.8c-1.4-1.7-2.8-3-4.3-3.8-1.4-.8-3-1.2-4.9-1.2-3.2 0-5.8 1.5-7.7 4.6a27 27 0 00-2.8 14c0 6.9.8 11.7 2.4 14.5 1 1.7 2.3 2.8 4 3.5z" />
    <path fill="#fff"
        d="M176.8 236.1l-1.9 13h-26.8v18.6h23.4v12.8h-23.4v19.7h28.7v13.1H130v-77.2h46.8zM220.8 252.3c5 0 9 1.5 12 4.7 2.8 3 4.2 7.5 4.2 13.1v43.2h-17.4v-40.2c0-3-.5-5-1.4-6.1-.9-1.2-2.3-1.8-4-1.8-3.6 0-7 2.6-10.2 7.7v40.4h-17.4v-59.1h15.2l1.2 7a21.4 21.4 0 0117.8-9zM299.8 254.2l-18.4 59.1h-20.6L242 254.2h19l10.3 45.7 10.8-45.7h17.7zM350 296.2c0 2.2.3 3.8.9 4.9a6 6 0 003 2.3l-3.6 11.5c-3.6-.3-6.5-1.1-8.8-2.4a13 13 0 01-5.3-6.2c-3.8 6-9.7 8.9-17.6 8.9-5.8 0-10.4-1.7-13.9-5.1a18 18 0 01-5.2-13.4c0-6.4 2.4-11.4 7-14.8a34.4 34.4 0 0120.5-5.1h6v-2.6c0-3.5-.8-5.8-2.3-7.1-1.5-1.3-4-2-7.7-2a63.7 63.7 0 00-15.3 3.1l-4-11.6a66.9 66.9 0 0122-4.3c8.4 0 14.6 1.7 18.4 5.2 4 3.5 5.9 8.7 5.9 15.7v23zm-26.3 6.4c4 0 7-1.9 9.2-5.7v-10.4h-4.3c-4 0-7 .7-9 2-1.8 1.5-2.8 3.7-2.8 6.7 0 2.3.6 4.2 1.8 5.5 1.2 1.3 3 2 5 2zM378.3 315.2c-5 0-9-1.4-11.9-4.3-2.8-3-4.2-7.2-4.2-12.6v-67.6l17.4-2v69c0 2.4 1 3.6 3 3.6 1 0 2-.2 2.9-.6l3.4 12.5c-3.2 1.3-6.7 2-10.6 2zM412.9 254.2v59.1h-17.4v-59.1h17.4zM404 223c3 0 5.4 1 7.3 2.9 2 1.9 3 4.2 3 7.1 0 3-1 5.3-3 7.3-1.9 1.8-4.3 2.7-7.3 2.7s-5.5-.9-7.4-2.7c-2-2-2.9-4.4-2.9-7.3a10 10 0 0110.2-10zM479 230.7v82.6h-15.4l-1-6.9a19.3 19.3 0 01-16.6 8.8c-7.2 0-12.8-2.8-16.6-8.5a41.5 41.5 0 01-5.6-23.1c0-6 1-11.4 3-16.2a26 26 0 018.3-11.1c3.7-2.7 7.9-4 12.6-4 5.6 0 10.2 1.8 13.9 5.6v-29.1l17.4 1.9zm-27.6 71.6c4 0 7.5-2.2 10.2-6.7v-25.5c-1.4-1.7-2.8-3-4.3-3.8-1.4-.8-3-1.2-4.9-1.2-3.2 0-5.8 1.5-7.7 4.6a27 27 0 00-2.8 14c0 6.9.8 11.7 2.4 14.5a8 8 0 007.1 4z" />
    <path fill="#000" fill-rule="evenodd"
        d="M179.1 234.1l-2.4 17H150v14.6h23.4v16.8h-23.4v15.7h28.7v17.1H128v-81.2h51.1zm-31 66v-19.6h23.4v-12.8h-23.4v-18.5h26.8l2-13H130v77.1h46.8v-13.1h-28.7zm91 15.2h-21.5v-42.2c0-2.9-.5-4.3-1-4.8v-.1c-.4-.6-1.1-1-2.5-1-2.4 0-5.1 1.7-8.1 6.3v41.8h-21.4v-63.1h18.9l.8 4.7a23.4 23.4 0 0116.6-6.6c5.4 0 10 1.7 13.3 5.3 3.3 3.6 4.8 8.5 4.8 14.5v45.2zm-34.4-56l-1.7 1.9-1.2-7h-15.2v59.1H204V273c3.2-5.1 6.6-7.7 10.1-7.7 1.8 0 3.2.6 4 1.8 1 1.1 1.5 3.1 1.5 6.1v40.2H237v-43.2c0-5.6-1.4-10-4.3-13.1a15.3 15.3 0 00-11.9-4.7 21.4 21.4 0 00-16.1 7zm97.9-7.1l-1 3.1 1.4-.5a59.8 59.8 0 0122.7-4.5c8.6 0 15.4 1.8 19.8 5.7 4.4 4 6.5 9.9 6.5 17.2v23c0 2 .3 3.2.6 3.8a4 4 0 002 1.5l1.8.7-4.7 14.8-1.6-.1c-3.7-.3-7-1.2-9.6-2.6a14 14 0 01-4.5-4.3c-4.2 4.8-10.1 7.2-17.4 7.2-6.2 0-11.4-1.8-15.3-5.7a20 20 0 01-5.8-14.8c0-7 2.6-12.6 8-16.4a36.3 36.3 0 0121.5-5.5h4v-.6c0-3.3-.8-5-1.6-5.6-1-.8-2.9-1.5-6.4-1.5a61.7 61.7 0 00-14.7 3l-1.9.6-5-14.7-18.5 59.3h-23.5l-20.1-63.1h23.3l8.7 38.9 9.2-39h22zm-31.3 47.7L261 254.2h-19l18.8 59.1h20.6l18.4-59.1h-17.7l-10.8 45.7zm61.6-23.1h-6c-8.8 0-15.6 1.7-20.3 5.1-4.7 3.4-7 8.4-7 14.8a18 18 0 005.1 13.4c3.5 3.4 8 5.1 13.9 5.1a19.7 19.7 0 0017.6-9l1 2.1c1.2 1.8 2.6 3.2 4.3 4.2 2.3 1.3 5.2 2 8.8 2.4l3.6-11.5a6 6 0 01-3-2.3c-.6-1-1-2.7-1-5v-22.9c0-7-1.9-12.2-5.8-15.7s-10-5.2-18.4-5.2a58 58 0 00-22 4.3l4 11.6a63.8 63.8 0 0115.3-3.1c3.7 0 6.2.7 7.7 2s2.2 3.6 2.2 7.1v2.6zm32 35.4a19.6 19.6 0 01-4.7-14V229l21.4-2.3v71c0 1 .2 1.4.3 1.5 0 0 .2.2.7.2.8 0 1.5-.2 2-.4l2.2-.9 4.5 16.4-1.6.6a28.9 28.9 0 01-11.4 2.2 18 18 0 01-13.3-5zm50-60v63.1h-21.4v-63.1h21.4zm-2-10.5a12.1 12.1 0 01-8.8 3.3c-3.5 0-6.5-1-8.8-3.3a11.9 11.9 0 01-3.5-8.7c0-3.4 1.1-6.3 3.5-8.5a12 12 0 018.8-3.5 12 12 0 018.7 3.5c2.4 2.2 3.6 5.1 3.6 8.5 0 3.4-1.2 6.4-3.6 8.7zm-16.2-15.8a9.5 9.5 0 00-2.9 7.1c0 3 1 5.3 2.9 7.3 1.9 1.8 4.3 2.7 7.4 2.7a9.7 9.7 0 0010.4-10c0-2.9-1-5.2-3-7.1a10 10 0 00-7.4-2.9c-3 0-5.5 1-7.4 2.9zm84.3 3v86.4h-19.2l-.5-4.1c-4.1 4-9.2 6-15.3 6-7.8 0-14-3.1-18.2-9.3-4-6.1-6-14.3-6-24.3 0-6.3 1-12 3.1-17s5.1-9 9-12c4-2.9 8.7-4.3 13.8-4.3 4.5 0 8.5 1.1 11.9 3.3v-27l21.4 2.3zm-19.4 29l-2-1.8a19 19 0 00-11.9-3.8c-4.7 0-8.9 1.3-12.6 4a26 26 0 00-8.3 11.1c-2 4.8-3 10.2-3 16.2 0 9.8 1.9 17.5 5.6 23.1 3.8 5.7 9.4 8.5 16.7 8.5a19 19 0 0016.6-8.8l.9 7H479v-82.7l-17.4-2V258zm-5.3 10.2c-1-.7-2.3-1-3.9-1-2.4 0-4.4 1-6 3.6a25.2 25.2 0 00-2.5 13c0 6.8.8 11.2 2.1 13.4a6 6 0 005.4 3.2c3 0 5.8-1.6 8.2-5.3v-24.2a12.6 12.6 0 00-3.3-2.7zm5.3 2v25.5c-2.7 4.5-6.1 6.7-10.2 6.7a8 8 0 01-7.1-4.1 30.8 30.8 0 01-2.4-14.5c0-6.3 1-11 2.8-14 2-3 4.5-4.6 7.7-4.6 1.9 0 3.5.4 4.9 1.2 1.5.8 2.9 2.1 4.3 3.8zm-130.7 26.3c-1.8 3-4.2 4.2-7.2 4.2-1.7 0-2.9-.5-3.6-1.2-.8-.9-1.3-2.2-1.3-4.2 0-2.5.8-4 2-5 1.6-1 4-1.7 7.8-1.7h2.3v7.9zm-2.3-10c-4 0-7 .8-9 2.2-1.8 1.4-2.8 3.6-2.8 6.6 0 2.3.6 4.2 1.8 5.5 1.2 1.3 3 2 5 2 4 0 7.1-2 9.3-5.8v-10.4h-4.3zm37.8 24.5c-2.8-3-4.2-7.2-4.2-12.6v-67.6l17.4-2v69c0 2.4 1 3.6 3 3.6a8 8 0 002.9-.6l3.4 12.5c-3.2 1.3-6.7 2-10.6 2-5 0-9-1.4-11.9-4.3zm46.5 2.4h-17.4v-59.1h17.4v59.1z"
        clip-rule="evenodd" />
</svg>