<svg xmlns="http://www.w3.org/2000/svg" fill="none" viewBox="0 0 203 58">
    <path fill="#A29CE3"
        d="M162.1 22.3v30.3h-7V56h9.9V22.3h-3ZM154.3 12c.8.4 1.7.5 2.8.5a5.5 5.5 0 0 0 6-5.7l-.3-1.6c.5.3 1 .6 1.3 1a5 5 0 0 1 1.7 4A5.5 5.5 0 0 1 160 16c-1.7 0-3.2-.6-4.2-1.6a5.5 5.5 0 0 1-1.5-2.4ZM137 52.3c1.5.9 3.3 1.4 5.4 1.4a14 14 0 0 0 6-1.2l-.9-3.4h.2a4 4 0 0 0 1.7-.3l2 7.1c-1.9.8-3.9 1.2-6.1 1.2a9 9 0 0 1-6.8-2.5 8 8 0 0 1-1.5-2.3Zm9-6.7-1.1.1c-1.1 0-1.7-.6-1.7-2V8h2.8v37.7ZM27.3 12l-.6 4H11.4v10.6h2.8v-7.1h15.4l1-7.4h-3.3Zm-2.5 18h2.8v7.3H14.3v7.8h-2.9V34h13.4v-4Zm3 18.5v4H4V56h26.6v-7.5h-2.8ZM61 22.7l1.3 1.2c1.7 1.8 2.5 4.3 2.5 7.5V56h-10v-3.4H62V28c0-2-.3-3.8-1-5.3Zm-17.9-.4h-.6v.6l.6-.6Zm0 30.3h-7V56H46V33c1.8-2.9 3.8-4.3 5.7-4.3h.3c0-1.2-.4-2-.8-2.4-.5-.7-1.3-1-2.2-1-2 0-4 1.4-5.8 4.3v23Zm53.5-30.3-9.4 30.3h-9.9l1.1 3.4h11.7l10.5-33.7h-4Zm-14 18.1-4.2-18h-2l5 22.5 1.1-4.4Zm43.6 2.4a6 6 0 0 0 .6 2.8c.4.6 1 1.1 1.7 1.3l-2 6.6a13 13 0 0 1-5.2-1.4 7.4 7.4 0 0 0 3 3.4c1.3.8 3 1.2 5 1.4l2-6.5c-.7-.3-1.3-.7-1.7-1.4-.3-.5-.6-1.5-.6-2.8v-13c0-4-1-7-3.3-9l-.7-.6c.8 1.8 1.2 3.7 1.2 6.1v13.1Zm-22.6-16.4 1.4 4c2.8-1 5.8-1.6 8.7-1.9 1.1 0 2 .2 2.7.3-.2-1.1-.6-2-1.1-2.5-.9-.8-2.3-1.2-4.4-1.2a35 35 0 0 0-7.3 1.3ZM121.3 52c-1.2-.8-2.2-2-2.8-3.4-2.2 3.4-5.5 5-10 5-2.8 0-5.2-.6-7-2a10.7 10.7 0 0 0 9.8 5.5c4.5 0 7.9-1.7 10-5Zm-4.6-11.3c-2.1 0-3.7.5-4.8 1.2-1 .8-1.6 2-1.6 3.8v.7c-.7-.1-1.3-.5-1.8-1-.7-.9-1.1-2-1-3.1 0-1.7.5-3 1.6-3.8a9 9 0 0 1 5.1-1.2h2.4v3.4Zm57.1 10.7.6.8c2.1 3.3 5.3 4.9 9.5 4.9a11 11 0 0 0 9-4.5h-2l-.5-4a11 11 0 0 1-9.4 5c-2.9 0-5.3-.7-7.2-2.2Zm19.6 1.2.4 3.4h8.8V9l-2.8-.4v44h-6.4ZM182.2 46c-.5-1.7-.7-4-.7-6.9 0-3.6.6-6.2 1.6-8 1.1-1.6 2.5-2.6 4.4-2.6a6 6 0 0 1 2.4.5v-1c-.8-1-1.6-1.7-2.5-2.2-.8-.4-1.7-.7-2.8-.7-1.8 0-3.3.9-4.4 2.6a15.4 15.4 0 0 0-1.6 8c0 4 .5 6.7 1.4 8.3.6 1 1.3 1.6 2.3 2Z" />
    <path fill="#fff"
        d="M27.8 8.6 26.7 16H11.4v10.6h13.4v7.3H11.4V45h16.4v7.5H1v-44h26.7Zm25 9.2c2.9 0 5.1.9 6.8 2.7 1.6 1.7 2.4 4.3 2.4 7.5v24.6h-9.9v-23c0-1.6-.3-2.8-.8-3.4-.5-.7-1.3-1-2.2-1-2 0-4 1.5-5.8 4.4v23h-10V18.9H42l.7 4a12.2 12.2 0 0 1 10.1-5.1Zm45 1.1L87.3 52.6H75.6L64.9 18.9h10.8l5.9 26 6.1-26h10Zm28.5 24a6 6 0 0 0 .6 2.7c.4.6 1 1.1 1.7 1.3l-2 6.6c-2.1-.2-3.8-.6-5.1-1.4-1.4-.8-2.4-2-3-3.5-2.2 3.4-5.5 5-10 5-3.3 0-6-1-8-2.8a10.3 10.3 0 0 1-2.9-7.7 10 10 0 0 1 4-8.4c3.5-2.2 7.6-3.2 11.7-3h3.4v-1.4c0-2-.5-3.3-1.3-4-.9-.8-2.3-1.2-4.4-1.2-3 .3-6 .8-8.7 1.8l-2.3-6.6a38 38 0 0 1 12.5-2.5c4.8 0 8.3 1 10.5 3 2.3 2 3.3 5 3.3 9v13Zm-15 3.6c2.4 0 4-1.1 5.3-3.3v-5.9h-2.4c-2.3 0-4 .4-5.2 1.2-1 .8-1.6 2-1.6 3.8 0 1.3.4 2.4 1 3.1.8.7 1.8 1.1 3 1.1Zm31.1 7.2a9 9 0 0 1-6.7-2.5 10.1 10.1 0 0 1-2.4-7.2V5.5l9.9-1.1v39.3c0 1.4.6 2 1.7 2a4 4 0 0 0 1.6-.3l2 7.1c-1.8.8-3.8 1.2-6 1.2Zm19.7-34.8v33.7h-9.9V18.9h10Zm-5-17.8c1.7 0 3 .6 4.1 1.7a5 5 0 0 1 1.7 4 5.5 5.5 0 0 1-5.8 5.7c-1.7 0-3.2-.5-4.2-1.5a5.6 5.6 0 0 1-1.7-4.2 5.7 5.7 0 0 1 5.8-5.7Zm42.7 4.4v47H191l-.6-3.9a11 11 0 0 1-9.4 5c-4.1 0-7.3-1.5-9.5-4.8a24 24 0 0 1-3.2-13.1c0-3.5.6-6.5 1.7-9.3 1-2.5 2.7-4.6 4.8-6.3 2-1.5 4.5-2.3 7.1-2.3 3.2 0 5.8 1 8 3.2V4.4l9.9 1.1ZM184 46.3c2.3 0 4.3-1.2 5.9-3.8V28c-.8-1-1.6-1.7-2.5-2.2-.8-.4-1.7-.7-2.8-.7-1.8 0-3.3.9-4.4 2.6a15.4 15.4 0 0 0-1.6 8c0 4 .5 6.7 1.4 8.3a4.6 4.6 0 0 0 4 2.3Z" />
    <path fill="#000" fill-rule="evenodd"
        d="M29 7.5 27.8 17H12.5v8.4h13.3V35H12.5v9H29v9.7H0V7.5h29ZM11.5 45V33.9h13.4v-7.3H11.4V16.1h15.3l1.1-7.4H1.1v43.9h26.7V45H11.4Zm51.8 8.6H51v-24c0-1.7-.3-2.5-.6-2.8-.2-.4-.6-.6-1.4-.6-1.4 0-2.9 1-4.6 3.6v23.8H32.2v-36H43l.4 2.8c2.6-2.5 6-3.9 9.5-3.8 3 0 5.7 1 7.5 3 2 2 2.8 4.9 2.8 8.3v25.7ZM43.7 21.8l-1 1.1-.7-4h-8.7v33.7h10v-23c1.8-2.9 3.7-4.4 5.7-4.4 1 0 1.8.4 2.3 1 .5.7.8 1.8.8 3.5v23h10V28c0-3.2-.9-5.7-2.5-7.4a8.7 8.7 0 0 0-6.8-2.7 12.2 12.2 0 0 0-9.1 4Zm55.7-4-.6 1.7.8-.2a34 34 0 0 1 13-2.6c4.8 0 8.7 1 11.2 3.2 2.5 2.3 3.7 5.7 3.7 9.8v13.1c0 1.2.2 1.9.3 2.2.3.4.7.7 1.2.9l1 .4-2.7 8.4h-.9a14 14 0 0 1-5.5-1.6 8 8 0 0 1-2.5-2.4 12.5 12.5 0 0 1-10 4.1c-3.5 0-6.4-1-8.6-3.2a11.4 11.4 0 0 1-3.3-8.5c0-4 1.4-7.2 4.5-9.3 3.7-2.3 8-3.4 12.3-3.2h2.2v-.3c0-1.9-.4-2.8-.9-3.2-.6-.4-1.6-.8-3.6-.8a35 35 0 0 0-8.4 1.7l-1 .3-3-8.4-10.4 33.8H74.8l-11.5-36h13.3l5 22.2 5.2-22.2h12.5ZM81.6 44.9l-6-26H65l10.7 33.7h11.7l10.5-33.7H87.7l-6.1 26Zm35-13.1h-3.4c-5 0-8.9 1-11.6 2.9a10 10 0 0 0-4 8.4 10.3 10.3 0 0 0 3 7.7c2 1.9 4.5 2.9 7.9 2.9a11.2 11.2 0 0 0 10-5.2l.6 1.2c.6 1 1.4 1.9 2.4 2.4 1.3.8 3 1.2 5 1.4l2-6.6c-.6-.2-1.2-.7-1.6-1.3-.4-.5-.6-1.5-.6-2.8v-13c0-4-1.1-7-3.3-9-2.2-2-5.7-3-10.5-3a33 33 0 0 0-12.5 2.5l2.3 6.6c2.8-1 5.7-1.5 8.7-1.8 2 0 3.5.4 4.4 1.2.8.7 1.2 2 1.2 4v1.5ZM134.8 52a11.8 11.8 0 0 1-2.7-8V4.6l12.2-1.4v40.5c0 .6.1.8.2.8 0 0 .1.2.4.2a3 3 0 0 0 1.1-.3l1.3-.5 2.5 9.4-.9.3a16.4 16.4 0 0 1-10.5.6 9.9 9.9 0 0 1-3.5-2.2Zm28.5-34.2v36H151v-36h12.2Zm-1.2-6a6.9 6.9 0 0 1-5 1.9c-2 0-3.7-.6-5-2a6.8 6.8 0 0 1-2-4.9c0-1.9.7-3.6 2-4.8a6.8 6.8 0 0 1 5-2 6.8 6.8 0 0 1 5 2c1.3 1.2 2 2.9 2 4.8 0 2-.7 3.7-2 5Zm-9.2-9a5.4 5.4 0 0 0-1.6 4c0 1.7.5 3 1.6 4.2a6 6 0 0 0 4.2 1.5 5.5 5.5 0 0 0 6-5.7 5 5 0 0 0-1.8-4 5.7 5.7 0 0 0-4.2-1.7c-1.7 0-3.1.6-4.2 1.7Zm48 1.7v49.2h-11l-.2-2.3a12 12 0 0 1-8.7 3.4 12 12 0 0 1-10.4-5.3 25 25 0 0 1-3.4-13.8c0-3.6.6-6.9 1.8-9.7 1.2-2.9 2.9-5.1 5-6.9a14 14 0 0 1 8-2.4c2.5 0 4.8.6 6.7 1.9V3.2L201 4.5Zm-11 16.5-1.2-1a11 11 0 0 0-6.8-2.2c-2.6 0-5 .8-7.1 2.3a14.8 14.8 0 0 0-4.8 6.3 23.8 23.8 0 0 0-1.7 9.3c0 5.5 1.1 10 3.2 13.1 2.2 3.3 5.4 4.9 9.5 4.9a10.8 10.8 0 0 0 9.5-5l.5 4h8.8V5.4l-10-1.1V21Zm-3 5.8c-.6-.4-1.4-.5-2.3-.5-1.3 0-2.5.5-3.4 2a14.4 14.4 0 0 0-1.4 7.4c0 3.9.4 6.4 1.2 7.7a3.4 3.4 0 0 0 3 1.8c1.8 0 3.3-1 4.7-3V28.4a7.2 7.2 0 0 0-1.9-1.6Zm3 1.2v14.5c-1.6 2.6-3.5 3.8-5.9 3.8a4.5 4.5 0 0 1-4-2.3 17.6 17.6 0 0 1-1.4-8.3c0-3.6.6-6.2 1.6-8 1.2-1.7 2.6-2.6 4.4-2.6 1.1 0 2 .3 2.8.7.9.5 1.7 1.2 2.5 2.2Zm-74.4 15a4.5 4.5 0 0 1-4.1 2.3c-1 0-1.7-.2-2-.6-.5-.6-.8-1.3-.8-2.4 0-1.5.4-2.3 1.1-2.9 1-.5 2.3-1 4.5-1h1.3V43Zm-1.3-5.7a9 9 0 0 0-5.2 1.2c-1 .8-1.6 2-1.6 3.8 0 1.3.4 2.4 1 3.1.8.7 1.8 1.1 3 1.1 2.2 0 4-1.1 5.2-3.3v-5.9h-2.4Zm21.5 14a10.1 10.1 0 0 1-2.4-7.3V5.5l9.9-1.1v39.3c0 1.4.6 2 1.7 2 .6 0 1.1 0 1.6-.3l2 7.1c-1.8.8-3.8 1.2-6 1.2-2.9 0-5.2-.8-6.8-2.5Zm26.4 1.3h-9.9V18.9h10v33.7Z"
        clip-rule="evenodd" />
</svg>